<svg width="242" height="243" viewBox="0 0 242 243" fill="none" xmlns="http://www.w3.org/2000/svg">
<path d="M121 1C187.27 1 241 54.9458 241 121.5C241 188.054 187.27 242 121 242C54.7297 242 1 188.054 1 121.5C1 54.9458 54.7297 1 121 1Z" fill="#121212" stroke="#FF73B8" stroke-width="2"/>
<path d="M121.5 13.5C181.132 13.5 229.5 62.0623 229.5 122C229.5 181.938 181.132 230.5 121.5 230.5C61.868 230.5 13.5 181.938 13.5 122C13.5 62.0623 61.868 13.5 121.5 13.5Z" stroke="#B987FF" stroke-width="7"/>
<path d="M116.904 167V93.016L84.008 150.488H78.376L45.352 93.016V167H36.392V76.12H45.608L81.064 138.328L116.776 76.12H125.864V167H116.904ZM148.642 167V76.12H186.274C190.199 76.12 193.783 76.9307 197.026 78.552C200.354 80.1733 203.213 82.392 205.602 85.208C207.991 87.9387 209.869 91.0107 211.234 94.424C212.599 97.752 213.282 101.165 213.282 104.664C213.282 109.613 212.173 114.307 209.954 118.744C207.821 123.096 204.791 126.637 200.866 129.368C196.941 132.099 192.333 133.464 187.042 133.464H157.602V167H148.642ZM157.602 125.528H186.658C190.242 125.528 193.357 124.547 196.002 122.584C198.647 120.621 200.695 118.061 202.146 114.904C203.597 111.747 204.322 108.333 204.322 104.664C204.322 100.909 203.469 97.4533 201.762 94.296C200.055 91.1387 197.794 88.664 194.978 86.872C192.247 84.9947 189.218 84.056 185.89 84.056H157.602V125.528Z" fill="#00B597"/>
</svg>
